<svg width="24" height="24" viewBox="0 0 24 24" fill="none" xmlns="http://www.w3.org/2000/svg">
<path fill-rule="evenodd" clip-rule="evenodd" d="M11.9648 0.799805C5.63456 0.799805 0.5 5.89396 0.5 12.1744C0.5 17.1988 3.80581 21.4556 8.30734 22.9908C8.87003 23.0606 9.08104 22.7116 9.08104 22.4325C9.08104 22.1534 9.08104 21.4556 9.08104 20.4786C5.9159 21.1764 5.21254 18.9434 5.21254 18.9434C4.72018 17.6175 3.94648 17.2686 3.94648 17.2686C2.89144 16.5707 4.01682 16.5707 4.01682 16.5707C5.1422 16.6405 5.77523 17.7571 5.77523 17.7571C6.83028 19.5016 8.44801 19.0132 9.08104 18.734C9.15138 17.9664 9.50306 17.4779 9.7844 17.1988C7.25229 16.9197 4.57951 15.9427 4.57951 11.5464C4.57951 10.2903 5.00153 9.31332 5.77523 8.47593C5.70489 8.26658 5.28287 7.08027 5.9159 5.54504C5.9159 5.54504 6.90061 5.26591 9.08104 6.73135C9.99541 6.45222 10.9801 6.38244 11.9648 6.38244C12.9495 6.38244 13.9343 6.52201 14.8486 6.73135C17.0291 5.26591 18.0138 5.54504 18.0138 5.54504C18.6468 7.08027 18.2248 8.26658 18.1544 8.54571C18.8578 9.31332 19.3502 10.3601 19.3502 11.6162C19.3502 16.0125 16.6774 16.9197 14.1453 17.1988C14.5673 17.5477 14.919 18.2455 14.919 19.2923C14.919 20.8275 14.919 22.0138 14.919 22.4325C14.919 22.7116 15.13 23.0606 15.6927 22.9908C20.2645 21.4556 23.5 17.1988 23.5 12.1744C23.4297 5.89396 18.2951 0.799805 11.9648 0.799805Z" fill="#443EDE"/>
</svg>
