<svg width="24" height="24" viewBox="0 0 24 24" fill="none" xmlns="http://www.w3.org/2000/svg">
<path d="M19.5 13.5719L12 20.9999L9.10397 18.1319M2.98697 10.0279C2.97862 8.97326 3.30396 7.94299 3.91649 7.08441C4.52902 6.22584 5.39735 5.58294 6.39732 5.24766C7.39728 4.91238 8.47766 4.90189 9.48394 5.21768C10.4902 5.53348 11.3709 6.15939 12 7.0059C12.4135 6.45593 12.9361 5.99723 13.5351 5.65851C14.134 5.31979 14.7965 5.10835 15.4809 5.03743C16.1653 4.9665 16.8571 5.0376 17.5127 5.2463C18.1684 5.45499 18.774 5.79678 19.2915 6.25027C19.8091 6.70376 20.2274 7.25919 20.5204 7.8818C20.8134 8.50441 20.9747 9.18079 20.9943 9.86861C21.0138 10.5564 20.8912 11.2409 20.6341 11.8792C20.377 12.5174 19.9909 13.0957 19.5 13.5779M3 12.9999H5L7 15.9999L9 9.9999L10 12.9999H13" stroke="#443EDE" stroke-width="2" stroke-linecap="round" stroke-linejoin="round"/>
</svg>
