<svg width="186" height="20" viewBox="0 0 186 20" fill="none" xmlns="http://www.w3.org/2000/svg">
<path d="M4.932 14.544C4.008 14.544 3.18 14.394 2.448 14.094C1.716 13.794 1.128 13.35 0.684 12.762C0.252 12.174 0.0239995 11.466 -4.61936e-07 10.638H3.276C3.324 11.106 3.486 11.466 3.762 11.718C4.038 11.958 4.398 12.078 4.842 12.078C5.298 12.078 5.658 11.976 5.922 11.772C6.186 11.556 6.318 11.262 6.318 10.89C6.318 10.578 6.21 10.32 5.994 10.116C5.79 9.912 5.532 9.744 5.22 9.612C4.92 9.48 4.488 9.33 3.924 9.162C3.108 8.91 2.442 8.658 1.926 8.406C1.41 8.154 0.966 7.782 0.594 7.29C0.222 6.798 0.0359995 6.156 0.0359995 5.364C0.0359995 4.188 0.462 3.27 1.314 2.61C2.166 1.938 3.276 1.602 4.644 1.602C6.036 1.602 7.158 1.938 8.01 2.61C8.862 3.27 9.318 4.194 9.378 5.382H6.048C6.024 4.974 5.874 4.656 5.598 4.428C5.322 4.188 4.968 4.068 4.536 4.068C4.164 4.068 3.864 4.17 3.636 4.374C3.408 4.566 3.294 4.848 3.294 5.22C3.294 5.628 3.486 5.946 3.87 6.174C4.254 6.402 4.854 6.648 5.67 6.912C6.486 7.188 7.146 7.452 7.65 7.704C8.166 7.956 8.61 8.322 8.982 8.802C9.354 9.282 9.54 9.9 9.54 10.656C9.54 11.376 9.354 12.03 8.982 12.618C8.622 13.206 8.094 13.674 7.398 14.022C6.702 14.37 5.88 14.544 4.932 14.544ZM17.5722 14.418L14.5122 10.206V14.418H11.4342V1.098H14.5122V8.46L17.5542 4.374H21.3522L17.1762 9.414L21.3882 14.418H17.5722ZM24.1092 3.33C23.5692 3.33 23.1252 3.174 22.7772 2.862C22.4412 2.538 22.2732 2.142 22.2732 1.674C22.2732 1.194 22.4412 0.797999 22.7772 0.485998C23.1252 0.161998 23.5692 -1.78814e-06 24.1092 -1.78814e-06C24.6372 -1.78814e-06 25.0692 0.161998 25.4052 0.485998C25.7532 0.797999 25.9272 1.194 25.9272 1.674C25.9272 2.142 25.7532 2.538 25.4052 2.862C25.0692 3.174 24.6372 3.33 24.1092 3.33ZM25.6392 4.374V14.418H22.5612V4.374H25.6392ZM30.9478 1.098V14.418H27.8698V1.098H30.9478ZM36.2564 1.098V14.418H33.1784V1.098H36.2564ZM43.059 14.544C42.135 14.544 41.307 14.394 40.575 14.094C39.843 13.794 39.255 13.35 38.811 12.762C38.379 12.174 38.151 11.466 38.127 10.638H41.403C41.451 11.106 41.613 11.466 41.889 11.718C42.165 11.958 42.525 12.078 42.969 12.078C43.425 12.078 43.785 11.976 44.049 11.772C44.313 11.556 44.445 11.262 44.445 10.89C44.445 10.578 44.337 10.32 44.121 10.116C43.917 9.912 43.659 9.744 43.347 9.612C43.047 9.48 42.615 9.33 42.051 9.162C41.235 8.91 40.569 8.658 40.053 8.406C39.537 8.154 39.093 7.782 38.721 7.29C38.349 6.798 38.163 6.156 38.163 5.364C38.163 4.188 38.589 3.27 39.441 2.61C40.293 1.938 41.403 1.602 42.771 1.602C44.163 1.602 45.285 1.938 46.137 2.61C46.989 3.27 47.445 4.194 47.505 5.382H44.175C44.151 4.974 44.001 4.656 43.725 4.428C43.449 4.188 43.095 4.068 42.663 4.068C42.291 4.068 41.991 4.17 41.763 4.374C41.535 4.566 41.421 4.848 41.421 5.22C41.421 5.628 41.613 5.946 41.997 6.174C42.381 6.402 42.981 6.648 43.797 6.912C44.613 7.188 45.273 7.452 45.777 7.704C46.293 7.956 46.737 8.322 47.109 8.802C47.481 9.282 47.667 9.9 47.667 10.656C47.667 11.376 47.481 12.03 47.109 12.618C46.749 13.206 46.221 13.674 45.525 14.022C44.829 14.37 44.007 14.544 43.059 14.544ZM55.7352 4.266C56.8872 4.266 57.8112 4.65 58.5072 5.418C59.2032 6.174 59.5512 7.218 59.5512 8.55V14.418H56.4912V8.964C56.4912 8.292 56.3172 7.77 55.9692 7.398C55.6212 7.026 55.1532 6.84 54.5652 6.84C53.9772 6.84 53.5092 7.026 53.1612 7.398C52.8132 7.77 52.6392 8.292 52.6392 8.964V14.418H49.5612V1.098H52.6392V5.724C52.9512 5.28 53.3772 4.926 53.9172 4.662C54.4572 4.398 55.0632 4.266 55.7352 4.266ZM61.0781 9.378C61.0781 8.346 61.2701 7.44 61.6541 6.66C62.0501 5.88 62.5841 5.28 63.2561 4.86C63.9281 4.44 64.6781 4.23 65.5061 4.23C66.2141 4.23 66.8321 4.374 67.3601 4.662C67.9001 4.95 68.3141 5.328 68.6021 5.796V4.374H71.6801V14.418H68.6021V12.996C68.3021 13.464 67.8821 13.842 67.3421 14.13C66.8141 14.418 66.1961 14.562 65.4881 14.562C64.6721 14.562 63.9281 14.352 63.2561 13.932C62.5841 13.5 62.0501 12.894 61.6541 12.114C61.2701 11.322 61.0781 10.41 61.0781 9.378ZM68.6021 9.396C68.6021 8.628 68.3861 8.022 67.9541 7.578C67.5341 7.134 67.0181 6.912 66.4061 6.912C65.7941 6.912 65.2721 7.134 64.8401 7.578C64.4201 8.01 64.2101 8.61 64.2101 9.378C64.2101 10.146 64.4201 10.758 64.8401 11.214C65.2721 11.658 65.7941 11.88 66.4061 11.88C67.0181 11.88 67.5341 11.658 67.9541 11.214C68.3861 10.77 68.6021 10.164 68.6021 9.396ZM76.9849 6.048C77.3449 5.496 77.7949 5.064 78.3349 4.752C78.8749 4.428 79.4749 4.266 80.1349 4.266V7.524H79.2889C78.5209 7.524 77.9449 7.692 77.5609 8.028C77.1769 8.352 76.9849 8.928 76.9849 9.756V14.418H73.9069V4.374H76.9849V6.048ZM91.0741 9.234C91.0741 9.522 91.0561 9.822 91.0201 10.134H84.0541C84.1021 10.758 84.3001 11.238 84.6481 11.574C85.0081 11.898 85.4461 12.06 85.9621 12.06C86.7301 12.06 87.2641 11.736 87.5641 11.088H90.8401C90.6721 11.748 90.3661 12.342 89.9221 12.87C89.4901 13.398 88.9441 13.812 88.2841 14.112C87.6241 14.412 86.8861 14.562 86.0701 14.562C85.0861 14.562 84.2101 14.352 83.4421 13.932C82.6741 13.512 82.0741 12.912 81.6421 12.132C81.2101 11.352 80.9941 10.44 80.9941 9.396C80.9941 8.352 81.2041 7.44 81.6241 6.66C82.0561 5.88 82.6561 5.28 83.4241 4.86C84.1921 4.44 85.0741 4.23 86.0701 4.23C87.0421 4.23 87.9061 4.434 88.6621 4.842C89.4181 5.25 90.0061 5.832 90.4261 6.588C90.8581 7.344 91.0741 8.226 91.0741 9.234ZM87.9241 8.424C87.9241 7.896 87.7441 7.476 87.3841 7.164C87.0241 6.852 86.5741 6.696 86.0341 6.696C85.5181 6.696 85.0801 6.846 84.7201 7.146C84.3721 7.446 84.1561 7.872 84.0721 8.424H87.9241Z" fill="#3D3D3D"/>
<path d="M104.378 12.186H99.6623L98.9063 14.418H95.6843L100.256 1.782H103.82L108.392 14.418H105.134L104.378 12.186ZM103.586 9.81L102.02 5.184L100.472 9.81H103.586ZM109.172 9.396C109.172 8.352 109.382 7.44 109.802 6.66C110.234 5.88 110.828 5.28 111.584 4.86C112.352 4.44 113.228 4.23 114.212 4.23C115.472 4.23 116.522 4.56 117.362 5.22C118.214 5.88 118.772 6.81 119.036 8.01H115.76C115.484 7.242 114.95 6.858 114.158 6.858C113.594 6.858 113.144 7.08 112.808 7.524C112.472 7.956 112.304 8.58 112.304 9.396C112.304 10.212 112.472 10.842 112.808 11.286C113.144 11.718 113.594 11.934 114.158 11.934C114.95 11.934 115.484 11.55 115.76 10.782H119.036C118.772 11.958 118.214 12.882 117.362 13.554C116.51 14.226 115.46 14.562 114.212 14.562C113.228 14.562 112.352 14.352 111.584 13.932C110.828 13.512 110.234 12.912 109.802 12.132C109.382 11.352 109.172 10.44 109.172 9.396ZM120.07 9.378C120.07 8.346 120.262 7.44 120.646 6.66C121.042 5.88 121.576 5.28 122.248 4.86C122.92 4.44 123.67 4.23 124.498 4.23C125.206 4.23 125.824 4.374 126.352 4.662C126.892 4.95 127.306 5.328 127.594 5.796V4.374H130.672V14.418H127.594V12.996C127.294 13.464 126.874 13.842 126.334 14.13C125.806 14.418 125.188 14.562 124.48 14.562C123.664 14.562 122.92 14.352 122.248 13.932C121.576 13.5 121.042 12.894 120.646 12.114C120.262 11.322 120.07 10.41 120.07 9.378ZM127.594 9.396C127.594 8.628 127.378 8.022 126.946 7.578C126.526 7.134 126.01 6.912 125.398 6.912C124.786 6.912 124.264 7.134 123.832 7.578C123.412 8.01 123.202 8.61 123.202 9.378C123.202 10.146 123.412 10.758 123.832 11.214C124.264 11.658 124.786 11.88 125.398 11.88C126.01 11.88 126.526 11.658 126.946 11.214C127.378 10.77 127.594 10.164 127.594 9.396ZM132.287 9.378C132.287 8.346 132.479 7.44 132.863 6.66C133.259 5.88 133.793 5.28 134.465 4.86C135.137 4.44 135.887 4.23 136.715 4.23C137.375 4.23 137.975 4.368 138.515 4.644C139.067 4.92 139.499 5.292 139.811 5.76V1.098H142.889V14.418H139.811V12.978C139.523 13.458 139.109 13.842 138.569 14.13C138.041 14.418 137.423 14.562 136.715 14.562C135.887 14.562 135.137 14.352 134.465 13.932C133.793 13.5 133.259 12.894 132.863 12.114C132.479 11.322 132.287 10.41 132.287 9.378ZM139.811 9.396C139.811 8.628 139.595 8.022 139.163 7.578C138.743 7.134 138.227 6.912 137.615 6.912C137.003 6.912 136.481 7.134 136.049 7.578C135.629 8.01 135.419 8.61 135.419 9.378C135.419 10.146 135.629 10.758 136.049 11.214C136.481 11.658 137.003 11.88 137.615 11.88C138.227 11.88 138.743 11.658 139.163 11.214C139.595 10.77 139.811 10.164 139.811 9.396ZM154.584 9.234C154.584 9.522 154.566 9.822 154.53 10.134H147.564C147.612 10.758 147.81 11.238 148.158 11.574C148.518 11.898 148.956 12.06 149.472 12.06C150.24 12.06 150.774 11.736 151.074 11.088H154.35C154.182 11.748 153.876 12.342 153.432 12.87C153 13.398 152.454 13.812 151.794 14.112C151.134 14.412 150.396 14.562 149.58 14.562C148.596 14.562 147.72 14.352 146.952 13.932C146.184 13.512 145.584 12.912 145.152 12.132C144.72 11.352 144.504 10.44 144.504 9.396C144.504 8.352 144.714 7.44 145.134 6.66C145.566 5.88 146.166 5.28 146.934 4.86C147.702 4.44 148.584 4.23 149.58 4.23C150.552 4.23 151.416 4.434 152.172 4.842C152.928 5.25 153.516 5.832 153.936 6.588C154.368 7.344 154.584 8.226 154.584 9.234ZM151.434 8.424C151.434 7.896 151.254 7.476 150.894 7.164C150.534 6.852 150.084 6.696 149.544 6.696C149.028 6.696 148.59 6.846 148.23 7.146C147.882 7.446 147.666 7.872 147.582 8.424H151.434ZM169.024 4.266C170.272 4.266 171.262 4.644 171.994 5.4C172.738 6.156 173.11 7.206 173.11 8.55V14.418H170.05V8.964C170.05 8.316 169.876 7.818 169.528 7.47C169.192 7.11 168.724 6.93 168.124 6.93C167.524 6.93 167.05 7.11 166.702 7.47C166.366 7.818 166.198 8.316 166.198 8.964V14.418H163.138V8.964C163.138 8.316 162.964 7.818 162.616 7.47C162.28 7.11 161.812 6.93 161.212 6.93C160.612 6.93 160.138 7.11 159.79 7.47C159.454 7.818 159.286 8.316 159.286 8.964V14.418H156.208V4.374H159.286V5.634C159.598 5.214 160.006 4.884 160.51 4.644C161.014 4.392 161.584 4.266 162.22 4.266C162.976 4.266 163.648 4.428 164.236 4.752C164.836 5.076 165.304 5.538 165.64 6.138C165.988 5.586 166.462 5.136 167.062 4.788C167.662 4.44 168.316 4.266 169.024 4.266ZM185.522 4.374L179.222 19.188H175.91L178.214 14.076L174.128 4.374H177.566L179.888 10.656L182.192 4.374H185.522Z" fill="#443CC6"/>
</svg>
