<svg width="24" height="24" viewBox="0 0 24 24" fill="none" xmlns="http://www.w3.org/2000/svg">
<path fill-rule="evenodd" clip-rule="evenodd" d="M12 23C18.0751 23 23 18.0751 23 12C23 5.92487 18.0751 1 12 1C5.92487 1 1 5.92487 1 12C1 18.0751 5.92487 23 12 23ZM12.2817 8.34788C11.1558 8.81879 8.9055 9.79346 5.53089 11.2719C4.9829 11.491 4.69584 11.7054 4.66971 11.915C4.62555 12.2692 5.06671 12.4087 5.66746 12.5987C5.74918 12.6245 5.83385 12.6513 5.92065 12.6796C6.5117 12.8728 7.30676 13.0989 7.72008 13.1078C8.095 13.116 8.51345 12.9606 8.97544 12.6416C12.1284 10.5014 13.756 9.41963 13.8582 9.39631C13.9303 9.37986 14.0302 9.35917 14.0979 9.41966C14.1656 9.48016 14.1589 9.59472 14.1518 9.62546C14.1081 9.81281 12.3763 11.4317 11.4801 12.2695C11.2008 12.5307 11.0026 12.7159 10.9621 12.7582C10.8713 12.853 10.7789 12.9427 10.69 13.0288C10.1409 13.5611 9.7291 13.9603 10.7128 14.6121C11.1855 14.9253 11.5637 15.1843 11.9411 15.4428C12.3532 15.725 12.7643 16.0065 13.2961 16.357C13.4316 16.4463 13.561 16.5391 13.6871 16.6295C14.1667 16.9733 14.5976 17.2822 15.1299 17.2329C15.4392 17.2043 15.7587 16.9118 15.921 16.0395C16.3045 13.978 17.0583 9.51144 17.2325 7.67086C17.2478 7.5096 17.2286 7.30322 17.2132 7.21262C17.1977 7.12203 17.1655 6.99295 17.0484 6.89739C16.9097 6.78423 16.6956 6.76037 16.5998 6.76198C16.1644 6.76977 15.4964 7.00334 12.2817 8.34788Z" fill="#443EDE"/>
</svg>
