<svg width="24" height="24" viewBox="0 0 24 24" fill="none" xmlns="http://www.w3.org/2000/svg">
<path fill-rule="evenodd" clip-rule="evenodd" d="M7.40205 17.9406C7.42161 17.9586 7.4422 17.9769 7.46141 17.9948C7.64191 18.1254 7.77334 18.3088 7.94698 18.4498C8.48642 18.885 9.09209 19.122 9.78732 19.1648C11.4341 19.2664 12.8689 18.0194 13.0552 16.3806C13.0641 16.3008 13.0607 16.2203 13.0607 16.1409V1.33379C13.0609 1.11202 13.171 1.00113 13.3908 1.00113C14.1358 1.00113 14.8811 1.00044 15.6254 1.00182C15.6947 1.00182 15.7682 0.988695 15.8317 1.03291C15.8365 1.03637 15.8406 1.04051 15.8454 1.04258C15.8807 1.07989 15.891 1.12722 15.9017 1.17558C16.1872 2.5055 16.8828 3.56703 17.973 4.36809C18.0416 4.41853 18.0986 4.48071 18.1641 4.53425C18.2115 4.57432 18.2588 4.61577 18.3069 4.65584C18.3405 4.65342 18.3648 4.67415 18.3909 4.689C18.9417 5.00611 19.5309 5.21407 20.1554 5.31839C20.3994 5.35846 20.6458 5.38575 20.8939 5.38333C20.9975 5.38229 21.0006 5.38575 20.9999 5.48489V5.62617L20.9944 6.17818L20.9999 6.18301V9.99006L20.9248 9.98039C20.2066 9.88505 19.5072 9.70819 18.8315 9.44289C18.185 9.18831 17.5763 8.86463 17.0042 8.46842C16.9689 8.44389 16.9325 8.42178 16.8769 8.38655V8.54683C16.8769 11.0419 16.8793 13.537 16.8762 16.031C16.8755 17.3606 16.5334 18.5959 15.8282 19.7231C14.9769 21.0844 13.7961 22.0423 12.2944 22.5902C11.3837 22.9246 10.4403 23.0527 9.47162 22.9805C7.83785 22.8589 6.4244 22.2306 5.22061 21.1155C5.18869 21.0862 5.1609 21.0516 5.13173 21.0188C5.07374 20.9677 5.01746 20.9169 4.96015 20.8661C4.52846 20.5072 4.2282 20.0419 3.94818 19.5662C3.51649 18.8336 3.23648 18.0415 3.09956 17.2003C3.02201 16.7192 2.98186 16.2342 3.00794 15.7478C3.09373 14.1795 3.61773 12.7795 4.62214 11.5694C5.46528 10.5549 6.51842 9.84567 7.75859 9.4194C8.83335 9.04875 9.75232 9.03424 10.8367 9.1548C10.8909 9.16136 10.9046 9.18589 10.9036 9.23287C10.9022 9.25981 10.9036 9.28606 10.9036 9.31335C10.9036 10.4958 10.9036 11.6779 10.9029 12.8603C10.9029 12.9035 10.9142 12.9498 10.8868 12.9967C10.7317 12.967 10.58 12.9204 10.4222 12.8983C9.51554 12.7701 8.69677 12.9836 7.97786 13.5539C7.34611 14.0552 6.95766 14.7132 6.82726 15.5101C6.68863 16.3564 6.86261 17.1413 7.34543 17.8515C7.36602 17.8802 7.38317 17.9106 7.4017 17.941L7.40205 17.9406Z" fill="#443EDE"/>
</svg>
