<svg width="24" height="24" viewBox="0 0 24 24" fill="none" xmlns="http://www.w3.org/2000/svg">
<path fill-rule="evenodd" clip-rule="evenodd" d="M20.9125 4.38145C21.9188 4.66895 22.6375 5.3877 22.925 6.39395C23.5 8.2627 23.5 12.0002 23.5 12.0002C23.5 12.0002 23.5 15.7377 23.0688 17.6064C22.7813 18.6127 22.0625 19.3314 21.0562 19.6189C19.1875 20.0502 12 20.0502 12 20.0502C12 20.0502 4.66875 20.0502 2.94375 19.6189C1.9375 19.3314 1.21875 18.6127 0.931254 17.6064C0.500004 15.7377 0.5 12.0002 0.5 12.0002C0.5 12.0002 0.499996 8.2627 0.787496 6.39395C1.075 5.3877 1.79376 4.66895 2.80001 4.38145C4.66876 3.9502 11.8562 3.9502 11.8562 3.9502C11.8562 3.9502 19.1875 3.9502 20.9125 4.38145ZM15.7373 12.0002L9.69983 15.4502V8.55022L15.7373 12.0002Z" fill="#443EDE"/>
</svg>
